<?xml version="1.0" encoding="UTF-8" standalone="no"?>
<!-- Created with Inkscape (http://www.inkscape.org/) -->

<svg
   xmlns:dc="http://purl.org/dc/elements/1.1/"
   xmlns:cc="http://creativecommons.org/ns#"
   xmlns:rdf="http://www.w3.org/1999/02/22-rdf-syntax-ns#"
   xmlns:svg="http://www.w3.org/2000/svg"
   xmlns="http://www.w3.org/2000/svg"
   xmlns:sodipodi="http://sodipodi.sourceforge.net/DTD/sodipodi-0.dtd"
   xmlns:inkscape="http://www.inkscape.org/namespaces/inkscape"
   width="744.09448819"
   height="1052.3622047"
   id="svg2"
   version="1.1"
   inkscape:version="0.48.4 r9939"
   sodipodi:docname="New document 1">
  <defs
     id="defs4" />
  <sodipodi:namedview
     id="base"
     pagecolor="#ffffff"
     bordercolor="#666666"
     borderopacity="1.0"
     inkscape:pageopacity="0.0"
     inkscape:pageshadow="2"
     inkscape:zoom="0.49497475"
     inkscape:cx="353.45777"
     inkscape:cy="513.73428"
     inkscape:document-units="px"
     inkscape:current-layer="layer1"
     showgrid="false"
     inkscape:window-width="876"
     inkscape:window-height="881"
     inkscape:window-x="0"
     inkscape:window-y="15"
     inkscape:window-maximized="0" />
  <metadata
     id="metadata7">
    <rdf:RDF>
      <cc:Work
         rdf:about="">
        <dc:format>image/svg+xml</dc:format>
        <dc:type
           rdf:resource="http://purl.org/dc/dcmitype/StillImage" />
        <dc:title></dc:title>
      </cc:Work>
    </rdf:RDF>
  </metadata>
  <g
     inkscape:label="Layer 1"
     inkscape:groupmode="layer"
     id="layer1">
    <path
       sodipodi:type="arc"
       style="fill:#ffffff;fill-rule:evenodd;stroke:#000000;stroke-width:1px;stroke-linecap:butt;stroke-linejoin:miter;stroke-opacity:1"
       id="path2985"
       sodipodi:cx="470.73108"
       sodipodi:cy="474.55493"
       sodipodi:rx="36.36549"
       sodipodi:ry="242.43661"
       d="m 507.09657,474.55493 a 36.36549,242.43661 0 1 1 -72.73098,0 36.36549,242.43661 0 1 1 72.73098,0 z" />
    <path
       style="fill:none;stroke:#000000;stroke-width:1px;stroke-linecap:butt;stroke-linejoin:miter;stroke-opacity:1"
       d="m 18.182746,323.03204 c 97.648084,0 195.296164,0 292.944244,0 -30.55064,-30.55062 -2.435,-4.99051 -16.16244,-14.14214 -0.79243,-0.52828 -1.16847,-1.59438 -2.02031,-2.0203 -0.60234,-0.30117 -1.45997,0.37355 -2.02031,0 -3.12661,-2.08441 -5.07391,-5.82574 -8.08122,-8.08122 -9.13779,-6.85334 -3.44795,-1.42765 -8.08122,-6.06092"
       id="path3763"
       inkscape:connector-curvature="0" />
    <path
       style="fill:none;stroke:#000000;stroke-width:1px;stroke-linecap:butt;stroke-linejoin:miter;stroke-opacity:1"
       d="m 313.14729,318.99144 c -2.69374,1.34687 -5.72949,2.15922 -8.08122,4.04061 -1.17587,0.94069 -0.95552,2.97581 -2.02031,4.04061 -0.47619,0.47619 -1.41797,-0.30117 -2.0203,0 -0.85184,0.42591 -1.34687,1.34687 -2.02031,2.0203 -0.67343,0.67344 -1.34687,1.34687 -2.0203,2.02031 -2.69375,2.69374 -5.38749,5.38748 -8.08123,8.08122 -1.06361,1.06362 -4.9819,5.52141 -6.06091,6.06091 -5.94537,2.97269 2.6599,-4.6802 -4.04061,2.02031"
       id="path3765"
       inkscape:connector-curvature="0" />
    <path
       style="fill:none;stroke:#000000;stroke-width:1px;stroke-linecap:butt;stroke-linejoin:miter;stroke-opacity:1"
       d="m 24.243661,569.50927 c 93.607469,0 187.214939,0 280.822399,0 -5.72715,0 -11.0206,1.0648 -16.16244,-2.0203 -10.10152,-6.06092 0,-2.02031 -6.06091,-6.06092 -2.50588,-1.67059 -5.67187,-2.23359 -8.08122,-4.04061 -1.10088,-0.82566 -9.35987,-8.98904 -10.10153,-10.10152 -0.37355,-0.56034 0.16334,-1.36698 0,-2.02031 -4.20401,-16.81605 0.13948,2.43872 -4.04061,-10.10153 -0.21296,-0.63887 0.30117,-1.41796 0,-2.0203 -0.42591,-0.85184 -1.34687,-1.34687 -2.0203,-2.02031"
       id="path3769"
       inkscape:connector-curvature="0" />
    <path
       style="fill:none;stroke:#000000;stroke-width:1px;stroke-linecap:butt;stroke-linejoin:miter;stroke-opacity:1"
       d="m 296.98484,561.42805 c 0,6.70255 1.20468,7.28435 -2.0203,12.12183 -2.70741,4.06112 -1.44308,0.48102 -6.06092,2.0203 -0.9035,0.30117 -1.22787,1.49202 -2.0203,2.02031 -3.75882,2.50588 -8.24807,3.73666 -12.12183,6.06091 -0.81666,0.49 -1.1168,1.71914 -2.02031,2.02031 -1.27775,0.42591 -2.69374,0 -4.04061,0 -2.0203,1.34687 -3.80647,3.13883 -6.06091,4.04061 -1.25054,0.50021 -2.79007,-0.50022 -4.04061,0 -3.62102,1.4484 -6.17936,5.08037 -10.10153,6.06091 -13.40101,0 2.85715,-0.95238 -6.06091,2.02031 -0.78898,0.26299 -6.06092,-1.13835 -6.06092,2.0203 0,0.67344 1.34687,0 2.02031,0 2.69374,0 5.38748,0 8.08122,0"
       id="path3771"
       inkscape:connector-curvature="0" />
    <flowRoot
       xml:space="preserve"
       id="flowRoot3775"
       style="fill:black;stroke:none;stroke-opacity:1;stroke-width:1px;stroke-linejoin:miter;stroke-linecap:butt;fill-opacity:1;font-family:Sans;font-style:normal;font-weight:normal;font-size:40px;line-height:125%;letter-spacing:0px;word-spacing:0px"><flowRegion
         id="flowRegion3777"><rect
           id="rect3779"
           width="276.7818"
           height="78.791901"
           x="84.852814"
           y="203.83405" /></flowRegion><flowPara
         id="flowPara3781"></flowPara></flowRoot>    <text
       xml:space="preserve"
       style="font-size:40px;font-style:normal;font-weight:normal;line-height:125%;letter-spacing:0px;word-spacing:0px;fill:#000000;fill-opacity:1;stroke:none;font-family:Sans"
       x="82.832512"
       y="238.17923"
       id="text3783"
       sodipodi:linespacing="125%"><tspan
         sodipodi:role="line"
         id="tspan3785"
         x="82.832512"
         y="238.17923">Solar Flux</tspan></text>
    <path
       style="fill:none;stroke:#000000;stroke-width:1px;stroke-linecap:butt;stroke-linejoin:miter;stroke-opacity:1"
       d="m 462.64987,474.55493 c 2.07262,1.79038 10.68955,-0.86315 14.14213,0 2.06601,0.5165 3.99491,1.5038 6.06092,2.0203 2.53528,0.63382 5.54593,-0.63382 8.08122,0 3.26163,0.81541 4.00723,1.98693 6.06091,4.04061 0.67344,0.67344 2.69374,1.34687 2.02031,2.02031 -0.67344,0.67343 -2.97269,-2.02031 -2.02031,-2.02031 2.44622,0 4.52295,2.50264 6.06092,4.04061 -2.02031,-3.36717 -4.51409,-6.49225 -6.06092,-10.10152 -0.53056,-1.23797 0,-2.69374 0,-4.04061 0,-0.67344 0.30117,-1.41797 0,-2.02031 -1.08588,-2.17176 -2.95473,-3.88915 -4.04061,-6.06091 -0.60234,-1.20468 0.60234,-2.83594 0,-4.04061 -0.42592,-0.85184 -1.71913,-1.1168 -2.0203,-2.02031 -0.60609,-1.81827 0.60609,-4.24264 0,-6.06091 -0.47619,-1.42858 -1.65509,-2.57973 -2.02031,-4.04061 -0.32666,-1.30666 0,-2.69374 0,-4.04061 0,-2.63194 0.44954,-7.85385 0,-10.10153 -0.41764,-2.08823 -0.83902,-4.28899 -2.0203,-6.06092 -0.37356,-0.56033 -2.02031,0.67344 -2.02031,0 0,-0.67343 1.34687,0 2.02031,0"
       id="path3787"
       inkscape:connector-curvature="0" />
    <path
       style="fill:none;stroke:#000000;stroke-width:1px;stroke-linecap:butt;stroke-linejoin:miter;stroke-opacity:1"
       d="m 496.99506,482.63615 c 0,2.69374 0.52828,5.43979 0,8.08122 -0.18678,0.93389 -1.59439,1.16847 -2.02031,2.02031 -0.30117,0.60234 0.30117,1.41796 0,2.0203 -0.42592,0.85184 -1.59439,1.16847 -2.0203,2.02031 -9.75594,19.51188 2.60276,-3.76769 -2.02031,10.10152 -0.30117,0.90351 -1.59439,1.16847 -2.0203,2.02031 -0.30117,0.60234 0,1.34687 0,2.0203 -0.67344,1.34687 -1.18502,2.78767 -2.02031,4.04061 -1.05657,1.58486 -3.18877,2.33694 -4.04061,4.04061 -2.97268,5.94538 4.6802,-2.65989 -2.0203,4.04061"
       id="path3789"
       inkscape:connector-curvature="0" />
    <text
       xml:space="preserve"
       style="font-size:40px;font-style:normal;font-weight:normal;line-height:125%;letter-spacing:0px;word-spacing:0px;fill:#000000;fill-opacity:1;stroke:none;font-family:Sans"
       x="472.7514"
       y="413.94577"
       id="text3791"
       sodipodi:linespacing="125%"><tspan
         sodipodi:role="line"
         x="472.7514"
         y="413.94577"
         id="tspan3795" /></text>
    <flowRoot
       xml:space="preserve"
       id="flowRoot3797"
       style="fill:black;stroke:none;stroke-opacity:1;stroke-width:1px;stroke-linejoin:miter;stroke-linecap:butt;fill-opacity:1;font-family:Sans;font-style:normal;font-weight:normal;font-size:40px;line-height:125%;letter-spacing:0px;word-spacing:0px"><flowRegion
         id="flowRegion3799"><rect
           id="rect3801"
           width="446.48743"
           height="90.913727"
           x="478.81232"
           y="413.94577" /></flowRegion><flowPara
         id="flowPara3803"></flowPara></flowRoot>    <text
       xml:space="preserve"
       style="font-size:40px;font-style:normal;font-weight:normal;line-height:125%;letter-spacing:0px;word-spacing:0px;fill:#000000;fill-opacity:1;stroke:none;font-family:Sans"
       x="462.64987"
       y="387.68182"
       id="text3807"
       sodipodi:linespacing="125%"><tspan
         sodipodi:role="line"
         id="tspan3809"
         x="462.64987"
         y="387.68182">Radius</tspan></text>
    <path
       style="fill:none;stroke:#000000;stroke-width:1px;stroke-linecap:butt;stroke-linejoin:miter;stroke-opacity:1"
       d="m 442.44681,751.33672 c -4.04061,2.69374 -8.68797,4.64737 -12.12183,8.08122 -3.43385,3.43386 -5.2586,8.17018 -8.08122,12.12184 -3.91426,5.47996 -8.08122,10.77496 -12.12183,16.16244 -4.71404,5.38748 -9.95077,10.35902 -14.14213,16.16244 -4.59817,6.36669 -7.55706,13.81236 -12.12183,20.20305 -5.56321,7.78849 -12.12183,14.81557 -18.18275,22.22335 -12.12183,14.81557 -24.40719,29.49884 -36.36549,44.44672 -4.79662,5.99577 -9.42809,12.12183 -14.14214,18.18274 -4.71404,6.06092 -9.62595,11.973 -14.14213,18.18275 -0.8857,1.21783 -0.95551,2.97581 -2.02031,4.04061 -5.24528,5.24528 -4.04061,-1.83131 -4.04061,6.06091 0,-14.14229 0,-6.73521 0,-22.22335 0,-3.36718 0.51201,-6.77351 0,-10.10153 0.3826,-10.23116 -6.46923,-18.61232 -8.08122,-28.28427 -1.21783,-7.30699 1.45279,-14.95943 0,-22.22336 -0.71122,-3.55613 -3.2539,-6.56132 -4.04061,-10.10152 -0.64262,-2.8918 0,-8.525 0,-12.12183"
       id="path3815"
       inkscape:connector-curvature="0" />
    <path
       style="fill:none;stroke:#000000;stroke-width:1px;stroke-linecap:butt;stroke-linejoin:miter;stroke-opacity:1"
       d="m 299.00515,929.12357 c 14.67734,4.89245 7.86266,4.04061 20.20305,4.04061 2.02031,0 4.07985,0.39622 6.06092,0 2.08823,-0.41764 3.99491,-1.5038 6.06091,-2.0203 0.65333,-0.16333 1.34687,0 2.02031,0 3.44367,0 3.61469,0.21296 8.08122,-2.02031 0.85184,-0.42592 1.16847,-1.59439 2.02031,-2.0203 0.60233,-0.30117 1.34687,0 2.0203,0 1.34687,0 2.76286,0.42591 4.04061,0 0.90351,-0.30117 1.16847,-1.59439 2.02031,-2.02031 1.20467,-0.60234 2.73395,0.32667 4.04061,0 2.066,-0.5165 4.15615,-1.06792 6.06091,-2.0203 0.85184,-0.42592 1.16847,-1.59439 2.02031,-2.02031 0.60233,-0.30117 1.34687,0 2.0203,0 0.67344,-0.67343 1.16847,-1.59439 2.02031,-2.0203 1.29102,-0.64551 6.45507,0.54204 8.08122,0 1.42857,-0.47619 2.61204,-1.54412 4.04061,-2.02031 1.19223,-0.39741 8.97272,0 10.10152,0"
       id="path3817"
       inkscape:connector-curvature="0" />
    <path
       style="fill:none;stroke:#000000;stroke-width:1px;stroke-linecap:butt;stroke-linejoin:miter;stroke-opacity:1"
       d="m 531.34024,733.15398 c 18.52671,13.89503 -2.66947,-2.59734 16.16244,14.14213 13.16042,11.69815 6.97807,3.93917 18.18275,16.16244 5.37173,5.86008 17,20.33734 24.24366,26.26397 17.4621,14.28718 9.57287,0.77041 24.24366,24.24366 3.19239,5.10782 4.6688,11.19892 8.08122,16.16244 4.05561,5.89908 10.17119,10.20603 14.14213,16.16244 1.54021,2.31031 0.59174,5.70027 2.02031,8.08122 2.70609,4.51016 6.63799,8.16351 10.10152,12.12183 1.2543,1.43348 2.69374,2.69374 4.04061,4.04061 0.67344,0.67344 1.49202,1.22788 2.02031,2.02031 0.83529,1.25294 0.95551,2.97582 2.0203,4.04061 1.0648,1.06479 2.78767,1.18501 4.04061,2.0203 0.79243,0.52829 1.34687,1.34687 2.02031,2.02031 -45.79358,0 -91.58716,0 -137.38075,0"
       id="path3821"
       inkscape:connector-curvature="0" />
    <path
       style="fill:none;stroke:#000000;stroke-width:1px;stroke-linecap:butt;stroke-linejoin:miter;stroke-opacity:1"
       d="m 672.76159,888.71747 c 0,-8.08122 0,-16.16244 0,-24.24366 0,-4.71405 -0.66666,-9.47547 0,-14.14214 0.69335,-4.8534 2.69374,-9.42809 4.04062,-14.14213 1.34687,-5.38748 3.30666,-10.65787 4.04061,-16.16244 0.62302,-4.6727 -0.62303,-9.46945 0,-14.14214 0.73394,-5.50457 3.12765,-10.68471 4.04061,-16.16244 0.88569,-5.31418 -0.66824,-10.81656 0,-16.16244 0.3444,-2.7552 1.56382,-5.34236 2.0203,-8.08122 0.39815,-2.38888 0,-5.57881 0,-8.08122"
       id="path3825"
       inkscape:connector-curvature="0" />
    <path
       sodipodi:type="arc"
       style="fill:none;stroke:#000000"
       id="path3829"
       sodipodi:cx="477.80215"
       sodipodi:cy="465.46356"
       sodipodi:rx="184.85791"
       sodipodi:ry="231.32494"
       d="m 662.66006,465.46356 a 184.85791,231.32494 0 1 1 -369.71582,0 184.85791,231.32494 0 1 1 369.71582,0 z"
       transform="matrix(0.99994172,0,0,1.0436215,0.02784781,-10.202715)" />
    <path
       style="fill:none;stroke:#000000;stroke-width:1px;stroke-linecap:butt;stroke-linejoin:miter;stroke-opacity:1"
       d="m 452.54834,197.77313 c -0.67343,-3.36718 -1.6411,-6.68867 -2.02031,-10.10153 -0.29747,-2.67726 0,-5.38748 0,-8.08122 0,-6.06091 0,-12.12183 0,-18.18274 0,-14.14214 0,-28.28427 0,-42.42641 0,-4.71404 0,-9.42809 0,-14.14213 0,-2.69374 0.44285,-5.424136 0,-8.081225 -0.24755,-1.485358 -1.65508,-2.579724 -2.0203,-4.04061 -0.37219,-1.488759 0.59182,-8.917879 0,-10.101525 -0.85184,-1.703671 -3.18877,-2.33694 -4.04061,-4.040611 -0.30117,-0.602338 0.30117,-1.417966 0,-2.020305 -0.42592,-0.851835 -1.59439,-1.168469 -2.02031,-2.020305 -0.30116,-0.602338 0.16334,-1.366977 0,-2.020305 -0.5165,-2.066004 -1.5038,-3.994911 -2.0203,-6.060915 -0.16333,-0.653328 0.30117,-1.417967 0,-2.020305 -0.42592,-0.851836 -1.34687,-1.34687 -2.02031,-2.020305 -3.36717,1.34687 -6.95279,2.241333 -10.10152,4.04061 -1.6538,0.945027 -2.69374,2.69374 -4.04061,4.04061 -2.69374,2.69374 -5.38748,5.38748 -8.08122,8.08122 -0.67344,0.673435 -1.34687,1.34687 -2.02031,2.020306 -0.67343,0.673435 -1.16847,1.594387 -2.0203,2.020305 -0.60234,0.301169 -1.41797,-0.30117 -2.02031,0 -0.85183,0.425917 -1.34687,1.34687 -2.0203,2.020305 -1.34687,1.34687 -2.69374,2.69374 -4.04061,4.04061"
       id="path3833"
       inkscape:connector-curvature="0" />
    <path
       style="fill:none;stroke:#000000;stroke-width:1px;stroke-linecap:butt;stroke-linejoin:miter;stroke-opacity:1"
       d="m 442.44681,66.453299 c 4.04061,0 8.08122,0 12.12184,0 0.67343,0 1.38142,-0.212959 2.0203,0 1.42857,0.47619 2.61204,1.544114 4.04061,2.020305 6.01411,2.004703 -4.14527,-4.783821 6.06092,2.020305 0.79242,0.528286 1.34687,1.34687 2.0203,2.020305 3.36718,3.367175 6.73435,6.73435 10.10153,10.101526 2.0203,2.020305 4.04061,4.04061 6.06091,6.060915 0.67344,0.673435 1.71914,1.116797 2.02031,2.020305 0.42591,1.277753 0,2.69374 0,4.04061 0,0.673435 -0.30117,1.417967 0,2.020305 0.85183,1.703671 3.43827,2.233595 4.04061,4.040615 0.42591,1.27775 0,2.69374 0,4.04061"
       id="path3835"
       inkscape:connector-curvature="0" />
    <path
       style="fill:none;stroke:#000000;stroke-width:1px;stroke-linecap:butt;stroke-linejoin:miter;stroke-opacity:1"
       d="m 581.84787,228.07771 c 1.34687,-2.69374 2.37002,-5.57534 4.04061,-8.08122 1.05657,-1.58486 2.69374,-2.69374 4.04061,-4.04061 3.35908,-3.35909 5.13351,-4.94304 8.08122,-10.10153 2.11314,-3.698 1.67804,-8.57798 4.04061,-12.12183 1.58485,-2.37729 4.78316,-3.50541 6.06091,-6.06092 1.53567,-3.07133 1.0336,-6.81248 2.02031,-10.10152 1.04208,-3.47361 3.39187,-6.53346 4.04061,-10.10153 1.30377,-7.17073 -1.30377,-15.05262 0,-22.22335 0.7619,-4.19048 3.2787,-7.93136 4.04061,-12.12183 0.60234,-3.31287 -0.60234,-6.78867 0,-10.10153 1.07187,-5.89532 5.96306,-16.39841 8.08122,-22.22335 3.55813,-9.784876 3.15044,-11.985096 8.08122,-20.203055 0.8364,-1.393996 5.1499,-3.842341 4.04061,-6.060916 -0.60234,-1.204677 -2.69374,0 -4.04061,0 -0.67344,0 -1.34687,0 -2.02031,0 -6.73435,0 -13.4687,0 -20.20305,0 -1.34687,0 -2.73395,-0.326664 -4.04061,0 -2.066,0.516501 -4.15615,1.067924 -6.06091,2.020305 -9.54026,4.77013 12.33115,-1.062484 -8.08122,4.040611 -0.65333,0.163331 -1.38143,-0.212959 -2.02031,0 -1.42857,0.47619 -2.64247,1.461047 -4.04061,2.020305 -1.97727,0.790909 -4.15615,1.067924 -6.06091,2.020305 -1.70368,0.851835 -2.2336,3.438271 -4.04061,4.04061 -1.27776,0.425918 -2.69374,0 -4.04061,0 -0.67344,0 -1.41797,-0.301169 -2.02031,0 -4.99299,2.496495 0.69737,2.020305 -4.04061,2.020305"
       id="path3837"
       inkscape:connector-curvature="0" />
    <path
       style="fill:none;stroke:#000000;stroke-width:1px;stroke-linecap:butt;stroke-linejoin:miter;stroke-opacity:1"
       d="m 634.3758,66.453299 c -9.68994,10.39611 5.17495,7.692018 6.06091,12.12183 0.52829,2.64143 -0.85183,5.525715 0,8.081221 0.60234,1.807016 3.06062,2.40729 4.04061,4.04061 5.2769,8.794822 1.05783,3.26882 2.02031,8.08122 2.6343,13.17152 0.64363,3.62939 4.04061,12.12183 0.79091,1.97727 1.06792,4.15615 2.0203,6.06092 0.85184,1.70367 2.98404,2.45575 4.04061,4.04061 0.8353,1.25294 1.18502,2.78767 2.02031,4.04061 0.57089,0.85633 5.22501,5.64296 6.06091,6.06091 5.94538,2.97269 -2.65989,-4.6802 4.04061,2.02031"
       id="path3839"
       inkscape:connector-curvature="0" />
    <text
       xml:space="preserve"
       style="font-size:40px;font-style:normal;font-weight:normal;line-height:125%;letter-spacing:0px;word-spacing:0px;fill:#000000;fill-opacity:1;stroke:none;font-family:Sans"
       x="294.96454"
       y="989.73273"
       id="text3841"
       sodipodi:linespacing="125%"><tspan
         sodipodi:role="line"
         id="tspan3843"
         x="294.96454"
         y="989.73273">Terrestrial Flux</tspan></text>
  </g>
</svg>
